<?xml version="1.0" encoding="UTF-8" standalone="no"?>
<!DOCTYPE svg PUBLIC "-//W3C//DTD SVG 1.1//EN"
 "http://www.w3.org/Graphics/SVG/1.1/DTD/svg11.dtd">
<!-- Generated by graphviz version 5.0.0 (20220707.1540)
 -->
<!-- Title: dependencies Pages: 1 -->
<svg width="954pt" height="247pt"
 viewBox="0.00 0.00 954.00 246.80" xmlns="http://www.w3.org/2000/svg" xmlns:xlink="http://www.w3.org/1999/xlink">
<g id="graph0" class="graph" transform="scale(1 1) rotate(0) translate(4 242.8)">
<title>dependencies</title>
<polygon fill="white" stroke="transparent" points="-4,4 -4,-242.8 950,-242.8 950,4 -4,4"/>
<text text-anchor="middle" x="473" y="-8.2" font-family="sans-serif" font-size="14.00">dependencies</text>
<g id="clust1" class="cluster">
<title>cluster_UserModule</title>
<polygon fill="none" stroke="black" stroke-dasharray="1,5" points="8,-32.8 8,-230.8 938,-230.8 938,-32.8 8,-32.8"/>
</g>
<g id="clust2" class="cluster">
<title>cluster_UserModule_declarations</title>
<polygon fill="none" stroke="black" points="468,-40.8 468,-92.8 930,-92.8 930,-40.8 468,-40.8"/>
</g>
<g id="clust9" class="cluster">
<title>cluster_UserModule_providers</title>
<polygon fill="none" stroke="black" points="138,-40.8 138,-92.8 460,-92.8 460,-40.8 138,-40.8"/>
</g>
<g id="clust7" class="cluster">
<title>cluster_UserModule_exports</title>
<polygon fill="none" stroke="black" points="223,-170.8 223,-222.8 696,-222.8 696,-170.8 223,-170.8"/>
</g>
<g id="clust6" class="cluster">
<title>cluster_UserModule_imports</title>
<polygon fill="none" stroke="black" points="16,-40.8 16,-92.8 130,-92.8 130,-40.8 16,-40.8"/>
</g>
<!-- UserDetailComponent -->
<g id="node1" class="node">
<title>UserDetailComponent</title>
<polygon fill="#ffffb3" stroke="black" points="921.97,-84.8 780.03,-84.8 780.03,-48.8 921.97,-48.8 921.97,-84.8"/>
<text text-anchor="middle" x="851" y="-62.6" font-family="Times,serif" font-size="14.00">UserDetailComponent</text>
</g>
<!-- UserModule -->
<g id="node4" class="node">
<title>UserModule</title>
<polygon fill="#8dd3c7" stroke="black" points="495.99,-149.8 492.99,-153.8 471.99,-153.8 468.99,-149.8 410.01,-149.8 410.01,-113.8 495.99,-113.8 495.99,-149.8"/>
<text text-anchor="middle" x="453" y="-127.6" font-family="Times,serif" font-size="14.00">UserModule</text>
</g>
<!-- UserDetailComponent&#45;&gt;UserModule -->
<g id="edge1" class="edge">
<title>UserDetailComponent&#45;&gt;UserModule</title>
<path fill="none" stroke="black" d="M851,-84.91C851,-104.14 851,-131.8 851,-131.8 851,-131.8 506.35,-131.8 506.35,-131.8"/>
<polygon fill="black" stroke="black" points="506.35,-128.3 496.35,-131.8 506.35,-135.3 506.35,-128.3"/>
</g>
<!-- UserFormComponent -->
<g id="node2" class="node">
<title>UserFormComponent</title>
<polygon fill="#ffffb3" stroke="black" points="762.1,-84.8 623.9,-84.8 623.9,-48.8 762.1,-48.8 762.1,-84.8"/>
<text text-anchor="middle" x="693" y="-62.6" font-family="Times,serif" font-size="14.00">UserFormComponent</text>
</g>
<!-- UserFormComponent&#45;&gt;UserModule -->
<g id="edge2" class="edge">
<title>UserFormComponent&#45;&gt;UserModule</title>
<path fill="none" stroke="black" d="M655.84,-84.83C655.84,-101.2 655.84,-122.8 655.84,-122.8 655.84,-122.8 506.02,-122.8 506.02,-122.8"/>
<polygon fill="black" stroke="black" points="506.02,-119.3 496.02,-122.8 506.02,-126.3 506.02,-119.3"/>
</g>
<!-- UserListComponent -->
<g id="node3" class="node">
<title>UserListComponent</title>
<polygon fill="#ffffb3" stroke="black" points="605.55,-84.8 476.45,-84.8 476.45,-48.8 605.55,-48.8 605.55,-84.8"/>
<text text-anchor="middle" x="541" y="-62.6" font-family="Times,serif" font-size="14.00">UserListComponent</text>
</g>
<!-- UserListComponent&#45;&gt;UserModule -->
<g id="edge3" class="edge">
<title>UserListComponent&#45;&gt;UserModule</title>
<path fill="none" stroke="black" d="M486.11,-84.91C486.11,-84.91 486.11,-103.79 486.11,-103.79"/>
<polygon fill="black" stroke="black" points="482.61,-103.79 486.11,-113.79 489.61,-103.79 482.61,-103.79"/>
</g>
<!-- UserDetailComponent  -->
<g id="node6" class="node">
<title>UserDetailComponent </title>
<polygon fill="#fb8072" stroke="black" points="687.97,-214.8 542.03,-214.8 542.03,-178.8 687.97,-178.8 687.97,-214.8"/>
<text text-anchor="middle" x="615" y="-192.6" font-family="Times,serif" font-size="14.00">UserDetailComponent </text>
</g>
<!-- UserModule&#45;&gt;UserDetailComponent  -->
<g id="edge5" class="edge">
<title>UserModule&#45;&gt;UserDetailComponent </title>
<path fill="none" stroke="black" stroke-dasharray="5,2" d="M496.01,-140.8C530.79,-140.8 574.02,-140.8 574.02,-140.8 574.02,-140.8 574.02,-168.77 574.02,-168.77"/>
<polygon fill="black" stroke="black" points="570.52,-168.77 574.02,-178.77 577.52,-168.77 570.52,-168.77"/>
</g>
<!-- UserFormComponent  -->
<g id="node7" class="node">
<title>UserFormComponent </title>
<polygon fill="#fb8072" stroke="black" points="523.6,-214.8 382.4,-214.8 382.4,-178.8 523.6,-178.8 523.6,-214.8"/>
<text text-anchor="middle" x="453" y="-192.6" font-family="Times,serif" font-size="14.00">UserFormComponent </text>
</g>
<!-- UserModule&#45;&gt;UserFormComponent  -->
<g id="edge6" class="edge">
<title>UserModule&#45;&gt;UserFormComponent </title>
<path fill="none" stroke="black" stroke-dasharray="5,2" d="M453,-149.91C453,-149.91 453,-168.79 453,-168.79"/>
<polygon fill="black" stroke="black" points="449.5,-168.79 453,-178.79 456.5,-168.79 449.5,-168.79"/>
</g>
<!-- UserListComponent  -->
<g id="node8" class="node">
<title>UserListComponent </title>
<polygon fill="#fb8072" stroke="black" points="364.54,-214.8 231.46,-214.8 231.46,-178.8 364.54,-178.8 364.54,-214.8"/>
<text text-anchor="middle" x="298" y="-192.6" font-family="Times,serif" font-size="14.00">UserListComponent </text>
</g>
<!-- UserModule&#45;&gt;UserListComponent  -->
<g id="edge7" class="edge">
<title>UserModule&#45;&gt;UserListComponent </title>
<path fill="none" stroke="black" stroke-dasharray="5,2" d="M409.9,-140.8C371.88,-140.8 322.47,-140.8 322.47,-140.8 322.47,-140.8 322.47,-168.77 322.47,-168.77"/>
<polygon fill="black" stroke="black" points="318.97,-168.77 322.47,-178.77 325.97,-168.77 318.97,-168.77"/>
</g>
<!-- SharedModule -->
<g id="node5" class="node">
<title>SharedModule</title>
<polygon fill="#8dd3c7" stroke="black" points="122.43,-84.8 119.43,-88.8 98.43,-88.8 95.43,-84.8 23.57,-84.8 23.57,-48.8 122.43,-48.8 122.43,-84.8"/>
<text text-anchor="middle" x="73" y="-62.6" font-family="Times,serif" font-size="14.00">SharedModule</text>
</g>
<!-- SharedModule&#45;&gt;UserModule -->
<g id="edge4" class="edge">
<title>SharedModule&#45;&gt;UserModule</title>
<path fill="none" stroke="black" d="M73,-84.91C73,-104.14 73,-131.8 73,-131.8 73,-131.8 399.78,-131.8 399.78,-131.8"/>
<polygon fill="black" stroke="black" points="399.78,-135.3 409.78,-131.8 399.78,-128.3 399.78,-135.3"/>
</g>
<!-- SecurityInterceptor -->
<g id="node9" class="node">
<title>SecurityInterceptor</title>
<ellipse fill="#fdb462" stroke="black" cx="366" cy="-66.8" rx="85.65" ry="18"/>
<text text-anchor="middle" x="366" y="-62.6" font-family="Times,serif" font-size="14.00">SecurityInterceptor</text>
</g>
<!-- SecurityInterceptor&#45;&gt;UserModule -->
<g id="edge8" class="edge">
<title>SecurityInterceptor&#45;&gt;UserModule</title>
<path fill="none" stroke="black" d="M430.79,-78.72C430.79,-78.72 430.79,-103.57 430.79,-103.57"/>
<polygon fill="black" stroke="black" points="427.29,-103.57 430.79,-113.57 434.29,-103.57 427.29,-103.57"/>
</g>
<!-- UserService -->
<g id="node10" class="node">
<title>UserService</title>
<ellipse fill="#fdb462" stroke="black" cx="204" cy="-66.8" rx="58.46" ry="18"/>
<text text-anchor="middle" x="204" y="-62.6" font-family="Times,serif" font-size="14.00">UserService</text>
</g>
<!-- UserService&#45;&gt;UserModule -->
<g id="edge9" class="edge">
<title>UserService&#45;&gt;UserModule</title>
<path fill="none" stroke="black" d="M246.85,-79.23C246.85,-95.73 246.85,-122.8 246.85,-122.8 246.85,-122.8 399.78,-122.8 399.78,-122.8"/>
<polygon fill="black" stroke="black" points="399.78,-126.3 409.78,-122.8 399.78,-119.3 399.78,-126.3"/>
</g>
</g>
</svg>
