<?xml version="1.0" encoding="UTF-8" standalone="no"?>
<!DOCTYPE svg PUBLIC "-//W3C//DTD SVG 1.1//EN"
 "http://www.w3.org/Graphics/SVG/1.1/DTD/svg11.dtd">
<!-- Generated by graphviz version 5.0.0 (20220707.1540)
 -->
<!-- Title: dependencies Pages: 1 -->
<svg width="1347pt" height="247pt"
 viewBox="0.00 0.00 1347.00 246.80" xmlns="http://www.w3.org/2000/svg" xmlns:xlink="http://www.w3.org/1999/xlink">
<g id="graph0" class="graph" transform="scale(1 1) rotate(0) translate(4 242.8)">
<title>dependencies</title>
<polygon fill="white" stroke="transparent" points="-4,4 -4,-242.8 1343,-242.8 1343,4 -4,4"/>
<text text-anchor="middle" x="669.5" y="-8.2" font-family="sans-serif" font-size="14.00">dependencies</text>
<g id="clust1" class="cluster">
<title>cluster_VacatureModule</title>
<polygon fill="none" stroke="black" stroke-dasharray="1,5" points="8,-32.8 8,-230.8 1331,-230.8 1331,-32.8 8,-32.8"/>
</g>
<g id="clust2" class="cluster">
<title>cluster_VacatureModule_declarations</title>
<polygon fill="none" stroke="black" points="639,-40.8 639,-92.8 1323,-92.8 1323,-40.8 639,-40.8"/>
</g>
<g id="clust8" class="cluster">
<title>cluster_VacatureModule_exports</title>
<polygon fill="none" stroke="black" points="290,-170.8 290,-222.8 988,-222.8 988,-170.8 290,-170.8"/>
</g>
<g id="clust7" class="cluster">
<title>cluster_VacatureModule_imports</title>
<polygon fill="none" stroke="black" points="379,-40.8 379,-92.8 631,-92.8 631,-40.8 379,-40.8"/>
</g>
<g id="clust10" class="cluster">
<title>cluster_VacatureModule_providers</title>
<polygon fill="none" stroke="black" points="16,-40.8 16,-92.8 371,-92.8 371,-40.8 16,-40.8"/>
</g>
<!-- VacatureComponent -->
<g id="node1" class="node">
<title>VacatureComponent</title>
<polygon fill="#ffffb3" stroke="black" points="1314.85,-84.8 1183.15,-84.8 1183.15,-48.8 1314.85,-48.8 1314.85,-84.8"/>
<text text-anchor="middle" x="1249" y="-62.6" font-family="Times,serif" font-size="14.00">VacatureComponent</text>
</g>
<!-- VacatureModule -->
<g id="node5" class="node">
<title>VacatureModule</title>
<polygon fill="#8dd3c7" stroke="black" points="704.07,-149.8 701.07,-153.8 680.07,-153.8 677.07,-149.8 593.93,-149.8 593.93,-113.8 704.07,-113.8 704.07,-149.8"/>
<text text-anchor="middle" x="649" y="-127.6" font-family="Times,serif" font-size="14.00">VacatureModule</text>
</g>
<!-- VacatureComponent&#45;&gt;VacatureModule -->
<g id="edge1" class="edge">
<title>VacatureComponent&#45;&gt;VacatureModule</title>
<path fill="none" stroke="black" d="M1249,-84.93C1249,-105.37 1249,-135.8 1249,-135.8 1249,-135.8 714.1,-135.8 714.1,-135.8"/>
<polygon fill="black" stroke="black" points="714.1,-132.3 704.1,-135.8 714.1,-139.3 714.1,-132.3"/>
</g>
<!-- VacatureDetailComponent -->
<g id="node2" class="node">
<title>VacatureDetailComponent</title>
<polygon fill="#ffffb3" stroke="black" points="1165.06,-84.8 998.94,-84.8 998.94,-48.8 1165.06,-48.8 1165.06,-84.8"/>
<text text-anchor="middle" x="1082" y="-62.6" font-family="Times,serif" font-size="14.00">VacatureDetailComponent</text>
</g>
<!-- VacatureDetailComponent&#45;&gt;VacatureModule -->
<g id="edge2" class="edge">
<title>VacatureDetailComponent&#45;&gt;VacatureModule</title>
<path fill="none" stroke="black" d="M1082,-85.07C1082,-103.36 1082,-128.8 1082,-128.8 1082,-128.8 714.28,-128.8 714.28,-128.8"/>
<polygon fill="black" stroke="black" points="714.28,-125.3 704.28,-128.8 714.28,-132.3 714.28,-125.3"/>
</g>
<!-- VacatureFormComponent -->
<g id="node3" class="node">
<title>VacatureFormComponent</title>
<polygon fill="#ffffb3" stroke="black" points="981.19,-84.8 818.81,-84.8 818.81,-48.8 981.19,-48.8 981.19,-84.8"/>
<text text-anchor="middle" x="900" y="-62.6" font-family="Times,serif" font-size="14.00">VacatureFormComponent</text>
</g>
<!-- VacatureFormComponent&#45;&gt;VacatureModule -->
<g id="edge3" class="edge">
<title>VacatureFormComponent&#45;&gt;VacatureModule</title>
<path fill="none" stroke="black" d="M822.84,-84.81C822.84,-100.85 822.84,-121.8 822.84,-121.8 822.84,-121.8 714.48,-121.8 714.48,-121.8"/>
<polygon fill="black" stroke="black" points="714.48,-118.3 704.48,-121.8 714.48,-125.3 714.48,-118.3"/>
</g>
<!-- VacatureListComponent -->
<g id="node4" class="node">
<title>VacatureListComponent</title>
<polygon fill="#ffffb3" stroke="black" points="800.63,-84.8 647.37,-84.8 647.37,-48.8 800.63,-48.8 800.63,-84.8"/>
<text text-anchor="middle" x="724" y="-62.6" font-family="Times,serif" font-size="14.00">VacatureListComponent</text>
</g>
<!-- VacatureListComponent&#45;&gt;VacatureModule -->
<g id="edge4" class="edge">
<title>VacatureListComponent&#45;&gt;VacatureModule</title>
<path fill="none" stroke="black" d="M675.61,-84.91C675.61,-84.91 675.61,-103.79 675.61,-103.79"/>
<polygon fill="black" stroke="black" points="672.11,-103.79 675.61,-113.79 679.11,-103.79 672.11,-103.79"/>
</g>
<!-- VacatureComponent  -->
<g id="node8" class="node">
<title>VacatureComponent </title>
<polygon fill="#fb8072" stroke="black" points="979.85,-214.8 844.15,-214.8 844.15,-178.8 979.85,-178.8 979.85,-214.8"/>
<text text-anchor="middle" x="912" y="-192.6" font-family="Times,serif" font-size="14.00">VacatureComponent </text>
</g>
<!-- VacatureModule&#45;&gt;VacatureComponent  -->
<g id="edge7" class="edge">
<title>VacatureModule&#45;&gt;VacatureComponent </title>
<path fill="none" stroke="black" stroke-dasharray="5,2" d="M704.13,-142.8C781.25,-142.8 912,-142.8 912,-142.8 912,-142.8 912,-168.52 912,-168.52"/>
<polygon fill="black" stroke="black" points="908.5,-168.52 912,-178.52 915.5,-168.52 908.5,-168.52"/>
</g>
<!-- VacatureDetailComponent  -->
<g id="node9" class="node">
<title>VacatureDetailComponent </title>
<polygon fill="#fb8072" stroke="black" points="826.56,-214.8 657.44,-214.8 657.44,-178.8 826.56,-178.8 826.56,-214.8"/>
<text text-anchor="middle" x="742" y="-192.6" font-family="Times,serif" font-size="14.00">VacatureDetailComponent </text>
</g>
<!-- VacatureModule&#45;&gt;VacatureDetailComponent  -->
<g id="edge8" class="edge">
<title>VacatureModule&#45;&gt;VacatureDetailComponent </title>
<path fill="none" stroke="black" stroke-dasharray="5,2" d="M680.63,-149.91C680.63,-149.91 680.63,-168.79 680.63,-168.79"/>
<polygon fill="black" stroke="black" points="677.13,-168.79 680.63,-178.79 684.13,-168.79 677.13,-168.79"/>
</g>
<!-- VacatureFormComponent  -->
<g id="node10" class="node">
<title>VacatureFormComponent </title>
<polygon fill="#fb8072" stroke="black" points="638.69,-214.8 473.31,-214.8 473.31,-178.8 638.69,-178.8 638.69,-214.8"/>
<text text-anchor="middle" x="556" y="-192.6" font-family="Times,serif" font-size="14.00">VacatureFormComponent </text>
</g>
<!-- VacatureModule&#45;&gt;VacatureFormComponent  -->
<g id="edge9" class="edge">
<title>VacatureModule&#45;&gt;VacatureFormComponent </title>
<path fill="none" stroke="black" stroke-dasharray="5,2" d="M616.4,-149.91C616.4,-149.91 616.4,-168.79 616.4,-168.79"/>
<polygon fill="black" stroke="black" points="612.9,-168.79 616.4,-178.79 619.9,-168.79 612.9,-168.79"/>
</g>
<!-- VacatureListComponent  -->
<g id="node11" class="node">
<title>VacatureListComponent </title>
<polygon fill="#fb8072" stroke="black" points="455.63,-214.8 298.37,-214.8 298.37,-178.8 455.63,-178.8 455.63,-214.8"/>
<text text-anchor="middle" x="377" y="-192.6" font-family="Times,serif" font-size="14.00">VacatureListComponent </text>
</g>
<!-- VacatureModule&#45;&gt;VacatureListComponent  -->
<g id="edge10" class="edge">
<title>VacatureModule&#45;&gt;VacatureListComponent </title>
<path fill="none" stroke="black" stroke-dasharray="5,2" d="M593.86,-142.8C526.45,-142.8 421.23,-142.8 421.23,-142.8 421.23,-142.8 421.23,-168.52 421.23,-168.52"/>
<polygon fill="black" stroke="black" points="417.73,-168.52 421.23,-178.52 424.73,-168.52 417.73,-168.52"/>
</g>
<!-- SharedModule -->
<g id="node6" class="node">
<title>SharedModule</title>
<polygon fill="#8dd3c7" stroke="black" points="623.43,-84.8 620.43,-88.8 599.43,-88.8 596.43,-84.8 524.57,-84.8 524.57,-48.8 623.43,-48.8 623.43,-84.8"/>
<text text-anchor="middle" x="574" y="-62.6" font-family="Times,serif" font-size="14.00">SharedModule</text>
</g>
<!-- SharedModule&#45;&gt;VacatureModule -->
<g id="edge5" class="edge">
<title>SharedModule&#45;&gt;VacatureModule</title>
<path fill="none" stroke="black" d="M608.59,-84.91C608.59,-84.91 608.59,-103.79 608.59,-103.79"/>
<polygon fill="black" stroke="black" points="605.09,-103.79 608.59,-113.79 612.09,-103.79 605.09,-103.79"/>
</g>
<!-- SollicitatieModule -->
<g id="node7" class="node">
<title>SollicitatieModule</title>
<polygon fill="#8dd3c7" stroke="black" points="507.21,-84.8 504.21,-88.8 483.21,-88.8 480.21,-84.8 386.79,-84.8 386.79,-48.8 507.21,-48.8 507.21,-84.8"/>
<text text-anchor="middle" x="447" y="-62.6" font-family="Times,serif" font-size="14.00">SollicitatieModule</text>
</g>
<!-- SollicitatieModule&#45;&gt;VacatureModule -->
<g id="edge6" class="edge">
<title>SollicitatieModule&#45;&gt;VacatureModule</title>
<path fill="none" stroke="black" d="M490.13,-84.81C490.13,-100.85 490.13,-121.8 490.13,-121.8 490.13,-121.8 583.88,-121.8 583.88,-121.8"/>
<polygon fill="black" stroke="black" points="583.88,-125.3 593.88,-121.8 583.88,-118.3 583.88,-125.3"/>
</g>
<!-- SecurityInterceptor -->
<g id="node12" class="node">
<title>SecurityInterceptor</title>
<ellipse fill="#fdb462" stroke="black" cx="277" cy="-66.8" rx="85.65" ry="18"/>
<text text-anchor="middle" x="277" y="-62.6" font-family="Times,serif" font-size="14.00">SecurityInterceptor</text>
</g>
<!-- SecurityInterceptor&#45;&gt;VacatureModule -->
<g id="edge11" class="edge">
<title>SecurityInterceptor&#45;&gt;VacatureModule</title>
<path fill="none" stroke="black" d="M330.51,-80.87C330.51,-99.16 330.51,-128.8 330.51,-128.8 330.51,-128.8 583.89,-128.8 583.89,-128.8"/>
<polygon fill="black" stroke="black" points="583.89,-132.3 593.89,-128.8 583.89,-125.3 583.89,-132.3"/>
</g>
<!-- VacatureService -->
<g id="node13" class="node">
<title>VacatureService</title>
<ellipse fill="#fdb462" stroke="black" cx="99" cy="-66.8" rx="74.68" ry="18"/>
<text text-anchor="middle" x="99" y="-62.6" font-family="Times,serif" font-size="14.00">VacatureService</text>
</g>
<!-- VacatureService&#45;&gt;VacatureModule -->
<g id="edge12" class="edge">
<title>VacatureService&#45;&gt;VacatureModule</title>
<path fill="none" stroke="black" d="M99,-84.93C99,-105.37 99,-135.8 99,-135.8 99,-135.8 583.75,-135.8 583.75,-135.8"/>
<polygon fill="black" stroke="black" points="583.75,-139.3 593.75,-135.8 583.75,-132.3 583.75,-139.3"/>
</g>
</g>
</svg>
