<?xml version="1.0" encoding="UTF-8" standalone="no"?>
<!DOCTYPE svg PUBLIC "-//W3C//DTD SVG 1.1//EN"
 "http://www.w3.org/Graphics/SVG/1.1/DTD/svg11.dtd">
<!-- Generated by graphviz version 5.0.0 (20220707.1540)
 -->
<!-- Title: dependencies Pages: 1 -->
<svg width="452pt" height="174pt"
 viewBox="0.00 0.00 452.00 173.80" xmlns="http://www.w3.org/2000/svg" xmlns:xlink="http://www.w3.org/1999/xlink">
<g id="graph0" class="graph" transform="scale(1 1) rotate(0) translate(4 169.8)">
<title>dependencies</title>
<polygon fill="white" stroke="transparent" points="-4,4 -4,-169.8 448,-169.8 448,4 -4,4"/>
<text text-anchor="middle" x="222" y="-8.2" font-family="sans-serif" font-size="14.00">dependencies</text>
<g id="clust1" class="cluster">
<title>cluster_SecurityModule</title>
<polygon fill="none" stroke="black" stroke-dasharray="1,5" points="8,-32.8 8,-157.8 436,-157.8 436,-32.8 8,-32.8"/>
</g>
<g id="clust2" class="cluster">
<title>cluster_SecurityModule_declarations</title>
<polygon fill="none" stroke="black" points="138,-40.8 138,-92.8 428,-92.8 428,-40.8 138,-40.8"/>
</g>
<g id="clust5" class="cluster">
<title>cluster_SecurityModule_imports</title>
<polygon fill="none" stroke="black" points="16,-40.8 16,-92.8 130,-92.8 130,-40.8 16,-40.8"/>
</g>
<!-- RegisterComponent -->
<g id="node1" class="node">
<title>RegisterComponent</title>
<polygon fill="#ffffb3" stroke="black" points="419.99,-84.8 292.01,-84.8 292.01,-48.8 419.99,-48.8 419.99,-84.8"/>
<text text-anchor="middle" x="356" y="-62.6" font-family="Times,serif" font-size="14.00">RegisterComponent</text>
</g>
<!-- SecurityModule -->
<g id="node3" class="node">
<title>SecurityModule</title>
<polygon fill="#8dd3c7" stroke="black" points="263.21,-149.8 260.21,-153.8 239.21,-153.8 236.21,-149.8 156.79,-149.8 156.79,-113.8 263.21,-113.8 263.21,-149.8"/>
<text text-anchor="middle" x="210" y="-127.6" font-family="Times,serif" font-size="14.00">SecurityModule</text>
</g>
<!-- RegisterComponent&#45;&gt;SecurityModule -->
<g id="edge1" class="edge">
<title>RegisterComponent&#45;&gt;SecurityModule</title>
<path fill="none" stroke="black" d="M356,-84.91C356,-104.14 356,-131.8 356,-131.8 356,-131.8 273.12,-131.8 273.12,-131.8"/>
<polygon fill="black" stroke="black" points="273.12,-128.3 263.12,-131.8 273.12,-135.3 273.12,-128.3"/>
</g>
<!-- SecurityComponent -->
<g id="node2" class="node">
<title>SecurityComponent</title>
<polygon fill="#ffffb3" stroke="black" points="273.99,-84.8 146.01,-84.8 146.01,-48.8 273.99,-48.8 273.99,-84.8"/>
<text text-anchor="middle" x="210" y="-62.6" font-family="Times,serif" font-size="14.00">SecurityComponent</text>
</g>
<!-- SecurityComponent&#45;&gt;SecurityModule -->
<g id="edge2" class="edge">
<title>SecurityComponent&#45;&gt;SecurityModule</title>
<path fill="none" stroke="black" d="M210,-84.91C210,-84.91 210,-103.79 210,-103.79"/>
<polygon fill="black" stroke="black" points="206.5,-103.79 210,-113.79 213.5,-103.79 206.5,-103.79"/>
</g>
<!-- SharedModule -->
<g id="node4" class="node">
<title>SharedModule</title>
<polygon fill="#8dd3c7" stroke="black" points="122.43,-84.8 119.43,-88.8 98.43,-88.8 95.43,-84.8 23.57,-84.8 23.57,-48.8 122.43,-48.8 122.43,-84.8"/>
<text text-anchor="middle" x="73" y="-62.6" font-family="Times,serif" font-size="14.00">SharedModule</text>
</g>
<!-- SharedModule&#45;&gt;SecurityModule -->
<g id="edge3" class="edge">
<title>SharedModule&#45;&gt;SecurityModule</title>
<path fill="none" stroke="black" d="M73,-84.91C73,-104.14 73,-131.8 73,-131.8 73,-131.8 146.64,-131.8 146.64,-131.8"/>
<polygon fill="black" stroke="black" points="146.64,-135.3 156.64,-131.8 146.64,-128.3 146.64,-135.3"/>
</g>
</g>
</svg>
