<?xml version="1.0" encoding="UTF-8" standalone="no"?>
<!DOCTYPE svg PUBLIC "-//W3C//DTD SVG 1.1//EN"
 "http://www.w3.org/Graphics/SVG/1.1/DTD/svg11.dtd">
<!-- Generated by graphviz version 5.0.0 (20220707.1540)
 -->
<!-- Title: dependencies Pages: 1 -->
<svg width="1103pt" height="247pt"
 viewBox="0.00 0.00 1103.00 246.80" xmlns="http://www.w3.org/2000/svg" xmlns:xlink="http://www.w3.org/1999/xlink">
<g id="graph0" class="graph" transform="scale(1 1) rotate(0) translate(4 242.8)">
<title>dependencies</title>
<polygon fill="white" stroke="transparent" points="-4,4 -4,-242.8 1099,-242.8 1099,4 -4,4"/>
<text text-anchor="middle" x="547.5" y="-8.2" font-family="sans-serif" font-size="14.00">dependencies</text>
<g id="clust1" class="cluster">
<title>cluster_SollicitatieModule</title>
<polygon fill="none" stroke="black" stroke-dasharray="1,5" points="8,-32.8 8,-230.8 1087,-230.8 1087,-32.8 8,-32.8"/>
</g>
<g id="clust9" class="cluster">
<title>cluster_SollicitatieModule_providers</title>
<polygon fill="none" stroke="black" points="710,-40.8 710,-92.8 1079,-92.8 1079,-40.8 710,-40.8"/>
</g>
<g id="clust2" class="cluster">
<title>cluster_SollicitatieModule_declarations</title>
<polygon fill="none" stroke="black" points="138,-40.8 138,-92.8 702,-92.8 702,-40.8 138,-40.8"/>
</g>
<g id="clust6" class="cluster">
<title>cluster_SollicitatieModule_imports</title>
<polygon fill="none" stroke="black" points="16,-40.8 16,-92.8 130,-92.8 130,-40.8 16,-40.8"/>
</g>
<g id="clust7" class="cluster">
<title>cluster_SollicitatieModule_exports</title>
<polygon fill="none" stroke="black" points="316,-170.8 316,-222.8 706,-222.8 706,-170.8 316,-170.8"/>
</g>
<!-- SollicitatieDetailComponent -->
<g id="node1" class="node">
<title>SollicitatieDetailComponent</title>
<polygon fill="#ffffb3" stroke="black" points="694.19,-84.8 517.81,-84.8 517.81,-48.8 694.19,-48.8 694.19,-84.8"/>
<text text-anchor="middle" x="606" y="-62.6" font-family="Times,serif" font-size="14.00">SollicitatieDetailComponent</text>
</g>
<!-- SollicitatieModule -->
<g id="node4" class="node">
<title>SollicitatieModule</title>
<polygon fill="#8dd3c7" stroke="black" points="570.21,-149.8 567.21,-153.8 546.21,-153.8 543.21,-149.8 449.79,-149.8 449.79,-113.8 570.21,-113.8 570.21,-149.8"/>
<text text-anchor="middle" x="510" y="-127.6" font-family="Times,serif" font-size="14.00">SollicitatieModule</text>
</g>
<!-- SollicitatieDetailComponent&#45;&gt;SollicitatieModule -->
<g id="edge1" class="edge">
<title>SollicitatieDetailComponent&#45;&gt;SollicitatieModule</title>
<path fill="none" stroke="black" d="M544,-84.91C544,-84.91 544,-103.79 544,-103.79"/>
<polygon fill="black" stroke="black" points="540.5,-103.79 544,-113.79 547.5,-103.79 540.5,-103.79"/>
</g>
<!-- SollicitatieFormComponent -->
<g id="node2" class="node">
<title>SollicitatieFormComponent</title>
<polygon fill="#ffffb3" stroke="black" points="500.32,-84.8 327.68,-84.8 327.68,-48.8 500.32,-48.8 500.32,-84.8"/>
<text text-anchor="middle" x="414" y="-62.6" font-family="Times,serif" font-size="14.00">SollicitatieFormComponent</text>
</g>
<!-- SollicitatieFormComponent&#45;&gt;SollicitatieModule -->
<g id="edge2" class="edge">
<title>SollicitatieFormComponent&#45;&gt;SollicitatieModule</title>
<path fill="none" stroke="black" d="M475.03,-84.91C475.03,-84.91 475.03,-103.79 475.03,-103.79"/>
<polygon fill="black" stroke="black" points="471.53,-103.79 475.03,-113.79 478.53,-103.79 471.53,-103.79"/>
</g>
<!-- SollicitatieListComponent -->
<g id="node3" class="node">
<title>SollicitatieListComponent</title>
<polygon fill="#ffffb3" stroke="black" points="309.77,-84.8 146.23,-84.8 146.23,-48.8 309.77,-48.8 309.77,-84.8"/>
<text text-anchor="middle" x="228" y="-62.6" font-family="Times,serif" font-size="14.00">SollicitatieListComponent</text>
</g>
<!-- SollicitatieListComponent&#45;&gt;SollicitatieModule -->
<g id="edge3" class="edge">
<title>SollicitatieListComponent&#45;&gt;SollicitatieModule</title>
<path fill="none" stroke="black" d="M228,-84.82C228,-102.17 228,-125.8 228,-125.8 228,-125.8 439.85,-125.8 439.85,-125.8"/>
<polygon fill="black" stroke="black" points="439.85,-129.3 449.85,-125.8 439.85,-122.3 439.85,-129.3"/>
</g>
<!-- SollicitatieDetailComponent  -->
<g id="node6" class="node">
<title>SollicitatieDetailComponent </title>
<polygon fill="#fb8072" stroke="black" points="697.69,-214.8 518.31,-214.8 518.31,-178.8 697.69,-178.8 697.69,-214.8"/>
<text text-anchor="middle" x="608" y="-192.6" font-family="Times,serif" font-size="14.00">SollicitatieDetailComponent </text>
</g>
<!-- SollicitatieModule&#45;&gt;SollicitatieDetailComponent  -->
<g id="edge5" class="edge">
<title>SollicitatieModule&#45;&gt;SollicitatieDetailComponent </title>
<path fill="none" stroke="black" stroke-dasharray="5,2" d="M544.13,-149.91C544.13,-149.91 544.13,-168.79 544.13,-168.79"/>
<polygon fill="black" stroke="black" points="540.63,-168.79 544.13,-178.79 547.63,-168.79 540.63,-168.79"/>
</g>
<!-- SollicitatieFormComponent  -->
<g id="node7" class="node">
<title>SollicitatieFormComponent </title>
<polygon fill="#fb8072" stroke="black" points="499.82,-214.8 324.18,-214.8 324.18,-178.8 499.82,-178.8 499.82,-214.8"/>
<text text-anchor="middle" x="412" y="-192.6" font-family="Times,serif" font-size="14.00">SollicitatieFormComponent </text>
</g>
<!-- SollicitatieModule&#45;&gt;SollicitatieFormComponent  -->
<g id="edge6" class="edge">
<title>SollicitatieModule&#45;&gt;SollicitatieFormComponent </title>
<path fill="none" stroke="black" stroke-dasharray="5,2" d="M474.9,-149.91C474.9,-149.91 474.9,-168.79 474.9,-168.79"/>
<polygon fill="black" stroke="black" points="471.4,-168.79 474.9,-178.79 478.4,-168.79 471.4,-168.79"/>
</g>
<!-- SharedModule -->
<g id="node5" class="node">
<title>SharedModule</title>
<polygon fill="#8dd3c7" stroke="black" points="122.43,-84.8 119.43,-88.8 98.43,-88.8 95.43,-84.8 23.57,-84.8 23.57,-48.8 122.43,-48.8 122.43,-84.8"/>
<text text-anchor="middle" x="73" y="-62.6" font-family="Times,serif" font-size="14.00">SharedModule</text>
</g>
<!-- SharedModule&#45;&gt;SollicitatieModule -->
<g id="edge4" class="edge">
<title>SharedModule&#45;&gt;SollicitatieModule</title>
<path fill="none" stroke="black" d="M73,-85.08C73,-106.12 73,-137.8 73,-137.8 73,-137.8 439.7,-137.8 439.7,-137.8"/>
<polygon fill="black" stroke="black" points="439.7,-141.3 449.7,-137.8 439.7,-134.3 439.7,-141.3"/>
</g>
<!-- SecurityInterceptor -->
<g id="node8" class="node">
<title>SecurityInterceptor</title>
<ellipse fill="#fdb462" stroke="black" cx="985" cy="-66.8" rx="85.65" ry="18"/>
<text text-anchor="middle" x="985" y="-62.6" font-family="Times,serif" font-size="14.00">SecurityInterceptor</text>
</g>
<!-- SecurityInterceptor&#45;&gt;SollicitatieModule -->
<g id="edge7" class="edge">
<title>SecurityInterceptor&#45;&gt;SollicitatieModule</title>
<path fill="none" stroke="black" d="M985,-85.08C985,-106.12 985,-137.8 985,-137.8 985,-137.8 580.16,-137.8 580.16,-137.8"/>
<polygon fill="black" stroke="black" points="580.16,-134.3 570.16,-137.8 580.16,-141.3 580.16,-134.3"/>
</g>
<!-- SollicitatieService -->
<g id="node9" class="node">
<title>SollicitatieService</title>
<ellipse fill="#fdb462" stroke="black" cx="800" cy="-66.8" rx="81.66" ry="18"/>
<text text-anchor="middle" x="800" y="-62.6" font-family="Times,serif" font-size="14.00">SollicitatieService</text>
</g>
<!-- SollicitatieService&#45;&gt;SollicitatieModule -->
<g id="edge8" class="edge">
<title>SollicitatieService&#45;&gt;SollicitatieModule</title>
<path fill="none" stroke="black" d="M800,-84.82C800,-102.17 800,-125.8 800,-125.8 800,-125.8 580.44,-125.8 580.44,-125.8"/>
<polygon fill="black" stroke="black" points="580.44,-122.3 570.44,-125.8 580.44,-129.3 580.44,-122.3"/>
</g>
</g>
</svg>
