<?xml version="1.0" encoding="UTF-8" standalone="no"?>
<!DOCTYPE svg PUBLIC "-//W3C//DTD SVG 1.1//EN"
 "http://www.w3.org/Graphics/SVG/1.1/DTD/svg11.dtd">
<!-- Generated by graphviz version 5.0.0 (20220707.1540)
 -->
<!-- Title: dependencies Pages: 1 -->
<svg width="616pt" height="174pt"
 viewBox="0.00 0.00 616.00 173.80" xmlns="http://www.w3.org/2000/svg" xmlns:xlink="http://www.w3.org/1999/xlink">
<g id="graph0" class="graph" transform="scale(1 1) rotate(0) translate(4 169.8)">
<title>dependencies</title>
<polygon fill="white" stroke="transparent" points="-4,4 -4,-169.8 612,-169.8 612,4 -4,4"/>
<text text-anchor="middle" x="304" y="-8.2" font-family="sans-serif" font-size="14.00">dependencies</text>
<g id="clust1" class="cluster">
<title>cluster_AdminModule</title>
<polygon fill="none" stroke="black" stroke-dasharray="1,5" points="8,-32.8 8,-157.8 600,-157.8 600,-32.8 8,-32.8"/>
</g>
<g id="clust3" class="cluster">
<title>cluster_AdminModule_imports</title>
<polygon fill="none" stroke="black" points="212,-40.8 212,-92.8 592,-92.8 592,-40.8 212,-40.8"/>
</g>
<g id="clust6" class="cluster">
<title>cluster_AdminModule_providers</title>
<polygon fill="none" stroke="black" points="16,-40.8 16,-92.8 204,-92.8 204,-40.8 16,-40.8"/>
</g>
<!-- AdminRoutingModule -->
<g id="node1" class="node">
<title>AdminRoutingModule</title>
<polygon fill="#8dd3c7" stroke="black" points="583.56,-84.8 580.56,-88.8 559.56,-88.8 556.56,-84.8 440.44,-84.8 440.44,-48.8 583.56,-48.8 583.56,-84.8"/>
<text text-anchor="middle" x="512" y="-62.6" font-family="Times,serif" font-size="14.00">AdminRoutingModule</text>
</g>
<!-- AdminModule -->
<g id="node4" class="node">
<title>AdminModule</title>
<polygon fill="#8dd3c7" stroke="black" points="367.44,-149.8 364.44,-153.8 343.44,-153.8 340.44,-149.8 268.56,-149.8 268.56,-113.8 367.44,-113.8 367.44,-149.8"/>
<text text-anchor="middle" x="318" y="-127.6" font-family="Times,serif" font-size="14.00">AdminModule</text>
</g>
<!-- AdminRoutingModule&#45;&gt;AdminModule -->
<g id="edge1" class="edge">
<title>AdminRoutingModule&#45;&gt;AdminModule</title>
<path fill="none" stroke="black" d="M512,-84.91C512,-104.14 512,-131.8 512,-131.8 512,-131.8 377.46,-131.8 377.46,-131.8"/>
<polygon fill="black" stroke="black" points="377.46,-128.3 367.46,-131.8 377.46,-135.3 377.46,-128.3"/>
</g>
<!-- SharedModule -->
<g id="node2" class="node">
<title>SharedModule</title>
<polygon fill="#8dd3c7" stroke="black" points="422.43,-84.8 419.43,-88.8 398.43,-88.8 395.43,-84.8 323.57,-84.8 323.57,-48.8 422.43,-48.8 422.43,-84.8"/>
<text text-anchor="middle" x="373" y="-62.6" font-family="Times,serif" font-size="14.00">SharedModule</text>
</g>
<!-- SharedModule&#45;&gt;AdminModule -->
<g id="edge2" class="edge">
<title>SharedModule&#45;&gt;AdminModule</title>
<path fill="none" stroke="black" d="M345.5,-84.91C345.5,-84.91 345.5,-103.79 345.5,-103.79"/>
<polygon fill="black" stroke="black" points="342,-103.79 345.5,-113.79 349,-103.79 342,-103.79"/>
</g>
<!-- UserModule -->
<g id="node3" class="node">
<title>UserModule</title>
<polygon fill="#8dd3c7" stroke="black" points="305.99,-84.8 302.99,-88.8 281.99,-88.8 278.99,-84.8 220.01,-84.8 220.01,-48.8 305.99,-48.8 305.99,-84.8"/>
<text text-anchor="middle" x="263" y="-62.6" font-family="Times,serif" font-size="14.00">UserModule</text>
</g>
<!-- UserModule&#45;&gt;AdminModule -->
<g id="edge3" class="edge">
<title>UserModule&#45;&gt;AdminModule</title>
<path fill="none" stroke="black" d="M287.39,-84.91C287.39,-84.91 287.39,-103.79 287.39,-103.79"/>
<polygon fill="black" stroke="black" points="283.89,-103.79 287.39,-113.79 290.89,-103.79 283.89,-103.79"/>
</g>
<!-- SecurityInterceptor -->
<g id="node5" class="node">
<title>SecurityInterceptor</title>
<ellipse fill="#fdb462" stroke="black" cx="110" cy="-66.8" rx="85.65" ry="18"/>
<text text-anchor="middle" x="110" y="-62.6" font-family="Times,serif" font-size="14.00">SecurityInterceptor</text>
</g>
<!-- SecurityInterceptor&#45;&gt;AdminModule -->
<g id="edge4" class="edge">
<title>SecurityInterceptor&#45;&gt;AdminModule</title>
<path fill="none" stroke="black" d="M110,-84.91C110,-104.14 110,-131.8 110,-131.8 110,-131.8 258.71,-131.8 258.71,-131.8"/>
<polygon fill="black" stroke="black" points="258.71,-135.3 268.71,-131.8 258.71,-128.3 258.71,-135.3"/>
</g>
</g>
</svg>
