<?xml version="1.0" encoding="UTF-8" standalone="no"?>
<!DOCTYPE svg PUBLIC "-//W3C//DTD SVG 1.1//EN"
 "http://www.w3.org/Graphics/SVG/1.1/DTD/svg11.dtd">
<!-- Generated by graphviz version 5.0.0 (20220707.1540)
 -->
<!-- Title: dependencies Pages: 1 -->
<svg width="1297pt" height="247pt"
 viewBox="0.00 0.00 1297.00 246.80" xmlns="http://www.w3.org/2000/svg" xmlns:xlink="http://www.w3.org/1999/xlink">
<g id="graph0" class="graph" transform="scale(1 1) rotate(0) translate(4 242.8)">
<title>dependencies</title>
<polygon fill="white" stroke="transparent" points="-4,4 -4,-242.8 1293,-242.8 1293,4 -4,4"/>
<text text-anchor="middle" x="644.5" y="-8.2" font-family="sans-serif" font-size="14.00">dependencies</text>
<g id="clust1" class="cluster">
<title>cluster_BedrijfModule</title>
<polygon fill="none" stroke="black" stroke-dasharray="1,5" points="8,-32.8 8,-230.8 1281,-230.8 1281,-32.8 8,-32.8"/>
</g>
<g id="clust7" class="cluster">
<title>cluster_BedrijfModule_exports</title>
<polygon fill="none" stroke="black" points="392,-170.8 392,-222.8 904,-222.8 904,-170.8 392,-170.8"/>
</g>
<g id="clust9" class="cluster">
<title>cluster_BedrijfModule_providers</title>
<polygon fill="none" stroke="black" points="933,-40.8 933,-92.8 1273,-92.8 1273,-40.8 933,-40.8"/>
</g>
<g id="clust6" class="cluster">
<title>cluster_BedrijfModule_imports</title>
<polygon fill="none" stroke="black" points="525,-40.8 525,-92.8 925,-92.8 925,-40.8 525,-40.8"/>
</g>
<g id="clust2" class="cluster">
<title>cluster_BedrijfModule_declarations</title>
<polygon fill="none" stroke="black" points="16,-40.8 16,-92.8 517,-92.8 517,-40.8 16,-40.8"/>
</g>
<!-- BedrijfDetailComponent -->
<g id="node1" class="node">
<title>BedrijfDetailComponent</title>
<polygon fill="#ffffb3" stroke="black" points="508.69,-84.8 353.31,-84.8 353.31,-48.8 508.69,-48.8 508.69,-84.8"/>
<text text-anchor="middle" x="431" y="-62.6" font-family="Times,serif" font-size="14.00">BedrijfDetailComponent</text>
</g>
<!-- BedrijfModule -->
<g id="node4" class="node">
<title>BedrijfModule</title>
<polygon fill="#8dd3c7" stroke="black" points="691.71,-149.8 688.71,-153.8 667.71,-153.8 664.71,-149.8 592.29,-149.8 592.29,-113.8 691.71,-113.8 691.71,-149.8"/>
<text text-anchor="middle" x="642" y="-127.6" font-family="Times,serif" font-size="14.00">BedrijfModule</text>
</g>
<!-- BedrijfDetailComponent&#45;&gt;BedrijfModule -->
<g id="edge1" class="edge">
<title>BedrijfDetailComponent&#45;&gt;BedrijfModule</title>
<path fill="none" stroke="black" d="M454.23,-84.81C454.23,-100.85 454.23,-121.8 454.23,-121.8 454.23,-121.8 582.17,-121.8 582.17,-121.8"/>
<polygon fill="black" stroke="black" points="582.17,-125.3 592.17,-121.8 582.17,-118.3 582.17,-125.3"/>
</g>
<!-- BedrijfFormComponent -->
<g id="node2" class="node">
<title>BedrijfFormComponent</title>
<polygon fill="#ffffb3" stroke="black" points="335.82,-84.8 184.18,-84.8 184.18,-48.8 335.82,-48.8 335.82,-84.8"/>
<text text-anchor="middle" x="260" y="-62.6" font-family="Times,serif" font-size="14.00">BedrijfFormComponent</text>
</g>
<!-- BedrijfFormComponent&#45;&gt;BedrijfModule -->
<g id="edge2" class="edge">
<title>BedrijfFormComponent&#45;&gt;BedrijfModule</title>
<path fill="none" stroke="black" d="M260,-85.07C260,-103.36 260,-128.8 260,-128.8 260,-128.8 582.06,-128.8 582.06,-128.8"/>
<polygon fill="black" stroke="black" points="582.06,-132.3 592.06,-128.8 582.06,-125.3 582.06,-132.3"/>
</g>
<!-- BedrijfListComponent -->
<g id="node3" class="node">
<title>BedrijfListComponent</title>
<polygon fill="#ffffb3" stroke="black" points="166.27,-84.8 23.73,-84.8 23.73,-48.8 166.27,-48.8 166.27,-84.8"/>
<text text-anchor="middle" x="95" y="-62.6" font-family="Times,serif" font-size="14.00">BedrijfListComponent</text>
</g>
<!-- BedrijfListComponent&#45;&gt;BedrijfModule -->
<g id="edge3" class="edge">
<title>BedrijfListComponent&#45;&gt;BedrijfModule</title>
<path fill="none" stroke="black" d="M95,-84.93C95,-105.37 95,-135.8 95,-135.8 95,-135.8 582.01,-135.8 582.01,-135.8"/>
<polygon fill="black" stroke="black" points="582.01,-139.3 592.01,-135.8 582.01,-132.3 582.01,-139.3"/>
</g>
<!-- BedrijfDetailComponent  -->
<g id="node8" class="node">
<title>BedrijfDetailComponent </title>
<polygon fill="#fb8072" stroke="black" points="896.19,-214.8 737.81,-214.8 737.81,-178.8 896.19,-178.8 896.19,-214.8"/>
<text text-anchor="middle" x="817" y="-192.6" font-family="Times,serif" font-size="14.00">BedrijfDetailComponent </text>
</g>
<!-- BedrijfModule&#45;&gt;BedrijfDetailComponent  -->
<g id="edge7" class="edge">
<title>BedrijfModule&#45;&gt;BedrijfDetailComponent </title>
<path fill="none" stroke="black" stroke-dasharray="5,2" d="M691.74,-142.8C718.63,-142.8 746.38,-142.8 746.38,-142.8 746.38,-142.8 746.38,-168.52 746.38,-168.52"/>
<polygon fill="black" stroke="black" points="742.88,-168.52 746.38,-178.52 749.88,-168.52 742.88,-168.52"/>
</g>
<!-- BedrijfFormComponent  -->
<g id="node9" class="node">
<title>BedrijfFormComponent </title>
<polygon fill="#fb8072" stroke="black" points="719.32,-214.8 564.68,-214.8 564.68,-178.8 719.32,-178.8 719.32,-214.8"/>
<text text-anchor="middle" x="642" y="-192.6" font-family="Times,serif" font-size="14.00">BedrijfFormComponent </text>
</g>
<!-- BedrijfModule&#45;&gt;BedrijfFormComponent  -->
<g id="edge8" class="edge">
<title>BedrijfModule&#45;&gt;BedrijfFormComponent </title>
<path fill="none" stroke="black" stroke-dasharray="5,2" d="M642,-149.91C642,-149.91 642,-168.79 642,-168.79"/>
<polygon fill="black" stroke="black" points="638.5,-168.79 642,-178.79 645.5,-168.79 638.5,-168.79"/>
</g>
<!-- BedrijfListComponent  -->
<g id="node10" class="node">
<title>BedrijfListComponent </title>
<polygon fill="#fb8072" stroke="black" points="546.27,-214.8 399.73,-214.8 399.73,-178.8 546.27,-178.8 546.27,-214.8"/>
<text text-anchor="middle" x="473" y="-192.6" font-family="Times,serif" font-size="14.00">BedrijfListComponent </text>
</g>
<!-- BedrijfModule&#45;&gt;BedrijfListComponent  -->
<g id="edge9" class="edge">
<title>BedrijfModule&#45;&gt;BedrijfListComponent </title>
<path fill="none" stroke="black" stroke-dasharray="5,2" d="M592.23,-142.8C566.11,-142.8 539.46,-142.8 539.46,-142.8 539.46,-142.8 539.46,-168.52 539.46,-168.52"/>
<polygon fill="black" stroke="black" points="535.96,-168.52 539.46,-178.52 542.96,-168.52 535.96,-168.52"/>
</g>
<!-- BedrijfRoutingModule -->
<g id="node5" class="node">
<title>BedrijfRoutingModule</title>
<polygon fill="#8dd3c7" stroke="black" points="917.32,-84.8 914.32,-88.8 893.32,-88.8 890.32,-84.8 772.68,-84.8 772.68,-48.8 917.32,-48.8 917.32,-84.8"/>
<text text-anchor="middle" x="845" y="-62.6" font-family="Times,serif" font-size="14.00">BedrijfRoutingModule</text>
</g>
<!-- BedrijfRoutingModule&#45;&gt;BedrijfModule -->
<g id="edge4" class="edge">
<title>BedrijfRoutingModule&#45;&gt;BedrijfModule</title>
<path fill="none" stroke="black" d="M834.59,-84.81C834.59,-100.85 834.59,-121.8 834.59,-121.8 834.59,-121.8 701.85,-121.8 701.85,-121.8"/>
<polygon fill="black" stroke="black" points="701.85,-118.3 691.85,-121.8 701.85,-125.3 701.85,-118.3"/>
</g>
<!-- SecurityModule -->
<g id="node6" class="node">
<title>SecurityModule</title>
<polygon fill="#8dd3c7" stroke="black" points="755.21,-84.8 752.21,-88.8 731.21,-88.8 728.21,-84.8 648.79,-84.8 648.79,-48.8 755.21,-48.8 755.21,-84.8"/>
<text text-anchor="middle" x="702" y="-62.6" font-family="Times,serif" font-size="14.00">SecurityModule</text>
</g>
<!-- SecurityModule&#45;&gt;BedrijfModule -->
<g id="edge5" class="edge">
<title>SecurityModule&#45;&gt;BedrijfModule</title>
<path fill="none" stroke="black" d="M670.25,-84.91C670.25,-84.91 670.25,-103.79 670.25,-103.79"/>
<polygon fill="black" stroke="black" points="666.75,-103.79 670.25,-113.79 673.75,-103.79 666.75,-103.79"/>
</g>
<!-- SharedModule -->
<g id="node7" class="node">
<title>SharedModule</title>
<polygon fill="#8dd3c7" stroke="black" points="631.43,-84.8 628.43,-88.8 607.43,-88.8 604.43,-84.8 532.57,-84.8 532.57,-48.8 631.43,-48.8 631.43,-84.8"/>
<text text-anchor="middle" x="582" y="-62.6" font-family="Times,serif" font-size="14.00">SharedModule</text>
</g>
<!-- SharedModule&#45;&gt;BedrijfModule -->
<g id="edge6" class="edge">
<title>SharedModule&#45;&gt;BedrijfModule</title>
<path fill="none" stroke="black" d="M611.81,-84.91C611.81,-84.91 611.81,-103.79 611.81,-103.79"/>
<polygon fill="black" stroke="black" points="608.31,-103.79 611.81,-113.79 615.31,-103.79 608.31,-103.79"/>
</g>
<!-- BedrijfService -->
<g id="node11" class="node">
<title>BedrijfService</title>
<ellipse fill="#fdb462" stroke="black" cx="1198" cy="-66.8" rx="67.19" ry="18"/>
<text text-anchor="middle" x="1198" y="-62.6" font-family="Times,serif" font-size="14.00">BedrijfService</text>
</g>
<!-- BedrijfService&#45;&gt;BedrijfModule -->
<g id="edge10" class="edge">
<title>BedrijfService&#45;&gt;BedrijfModule</title>
<path fill="none" stroke="black" d="M1198,-84.93C1198,-105.37 1198,-135.8 1198,-135.8 1198,-135.8 701.83,-135.8 701.83,-135.8"/>
<polygon fill="black" stroke="black" points="701.83,-132.3 691.83,-135.8 701.83,-139.3 701.83,-132.3"/>
</g>
<!-- SecurityInterceptor -->
<g id="node12" class="node">
<title>SecurityInterceptor</title>
<ellipse fill="#fdb462" stroke="black" cx="1027" cy="-66.8" rx="85.65" ry="18"/>
<text text-anchor="middle" x="1027" y="-62.6" font-family="Times,serif" font-size="14.00">SecurityInterceptor</text>
</g>
<!-- SecurityInterceptor&#45;&gt;BedrijfModule -->
<g id="edge11" class="edge">
<title>SecurityInterceptor&#45;&gt;BedrijfModule</title>
<path fill="none" stroke="black" d="M1027,-85.07C1027,-103.36 1027,-128.8 1027,-128.8 1027,-128.8 701.94,-128.8 701.94,-128.8"/>
<polygon fill="black" stroke="black" points="701.94,-125.3 691.94,-128.8 701.94,-132.3 701.94,-125.3"/>
</g>
</g>
</svg>
