<?xml version="1.0" encoding="UTF-8" standalone="no"?>
<!DOCTYPE svg PUBLIC "-//W3C//DTD SVG 1.1//EN"
 "http://www.w3.org/Graphics/SVG/1.1/DTD/svg11.dtd">
<!-- Generated by graphviz version 5.0.0 (20220707.1540)
 -->
<!-- Title: dependencies Pages: 1 -->
<svg width="947pt" height="247pt"
 viewBox="0.00 0.00 947.00 246.80" xmlns="http://www.w3.org/2000/svg" xmlns:xlink="http://www.w3.org/1999/xlink">
<g id="graph0" class="graph" transform="scale(1 1) rotate(0) translate(4 242.8)">
<title>dependencies</title>
<polygon fill="white" stroke="transparent" points="-4,4 -4,-242.8 943,-242.8 943,4 -4,4"/>
<text text-anchor="middle" x="469.5" y="-8.2" font-family="sans-serif" font-size="14.00">dependencies</text>
<g id="clust1" class="cluster">
<title>cluster_AppModule</title>
<polygon fill="none" stroke="black" stroke-dasharray="1,5" points="8,-32.8 8,-230.8 931,-230.8 931,-32.8 8,-32.8"/>
</g>
<g id="clust2" class="cluster">
<title>cluster_AppModule_declarations</title>
<polygon fill="none" stroke="black" points="536,-40.8 536,-92.8 923,-92.8 923,-40.8 536,-40.8"/>
</g>
<g id="clust6" class="cluster">
<title>cluster_AppModule_imports</title>
<polygon fill="none" stroke="black" points="16,-40.8 16,-92.8 528,-92.8 528,-40.8 16,-40.8"/>
</g>
<g id="clust8" class="cluster">
<title>cluster_AppModule_bootstrap</title>
<polygon fill="none" stroke="black" points="394,-170.8 394,-222.8 518,-222.8 518,-170.8 394,-170.8"/>
</g>
<!-- AppComponent -->
<g id="node1" class="node">
<title>AppComponent</title>
<polygon fill="#ffffb3" stroke="black" points="914.94,-84.8 809.06,-84.8 809.06,-48.8 914.94,-48.8 914.94,-84.8"/>
<text text-anchor="middle" x="862" y="-62.6" font-family="Times,serif" font-size="14.00">AppComponent</text>
</g>
<!-- AppModule -->
<g id="node4" class="node">
<title>AppModule</title>
<polygon fill="#8dd3c7" stroke="black" points="497.66,-149.8 494.66,-153.8 473.66,-153.8 470.66,-149.8 414.34,-149.8 414.34,-113.8 497.66,-113.8 497.66,-149.8"/>
<text text-anchor="middle" x="456" y="-127.6" font-family="Times,serif" font-size="14.00">AppModule</text>
</g>
<!-- AppComponent&#45;&gt;AppModule -->
<g id="edge1" class="edge">
<title>AppComponent&#45;&gt;AppModule</title>
<path fill="none" stroke="black" d="M862,-85.09C862,-107.01 862,-140.8 862,-140.8 862,-140.8 507.92,-140.8 507.92,-140.8"/>
<polygon fill="black" stroke="black" points="507.92,-137.3 497.92,-140.8 507.92,-144.3 507.92,-137.3"/>
</g>
<!-- HomeComponent -->
<g id="node2" class="node">
<title>HomeComponent</title>
<polygon fill="#ffffb3" stroke="black" points="791.55,-84.8 676.45,-84.8 676.45,-48.8 791.55,-48.8 791.55,-84.8"/>
<text text-anchor="middle" x="734" y="-62.6" font-family="Times,serif" font-size="14.00">HomeComponent</text>
</g>
<!-- HomeComponent&#45;&gt;AppModule -->
<g id="edge2" class="edge">
<title>HomeComponent&#45;&gt;AppModule</title>
<path fill="none" stroke="black" d="M734,-84.91C734,-104.14 734,-131.8 734,-131.8 734,-131.8 507.92,-131.8 507.92,-131.8"/>
<polygon fill="black" stroke="black" points="507.92,-128.3 497.92,-131.8 507.92,-135.3 507.92,-128.3"/>
</g>
<!-- MenuComponent -->
<g id="node3" class="node">
<title>MenuComponent</title>
<polygon fill="#ffffb3" stroke="black" points="657.99,-84.8 544.01,-84.8 544.01,-48.8 657.99,-48.8 657.99,-84.8"/>
<text text-anchor="middle" x="601" y="-62.6" font-family="Times,serif" font-size="14.00">MenuComponent</text>
</g>
<!-- MenuComponent&#45;&gt;AppModule -->
<g id="edge3" class="edge">
<title>MenuComponent&#45;&gt;AppModule</title>
<path fill="none" stroke="black" d="M601,-84.83C601,-101.2 601,-122.8 601,-122.8 601,-122.8 507.94,-122.8 507.94,-122.8"/>
<polygon fill="black" stroke="black" points="507.94,-119.3 497.94,-122.8 507.94,-126.3 507.94,-119.3"/>
</g>
<!-- AppComponent  -->
<g id="node9" class="node">
<title>AppComponent </title>
<polygon fill="#80b1d3" stroke="black" points="510.44,-214.8 401.56,-214.8 401.56,-178.8 510.44,-178.8 510.44,-214.8"/>
<text text-anchor="middle" x="456" y="-192.6" font-family="Times,serif" font-size="14.00">AppComponent </text>
</g>
<!-- AppModule&#45;&gt;AppComponent  -->
<g id="edge8" class="edge">
<title>AppModule&#45;&gt;AppComponent </title>
<path fill="none" stroke="black" stroke-dasharray="1,5" d="M456,-149.91C456,-149.91 456,-168.79 456,-168.79"/>
<polygon fill="black" stroke="black" points="452.5,-168.79 456,-178.79 459.5,-168.79 452.5,-168.79"/>
</g>
<!-- AppRoutingModule -->
<g id="node5" class="node">
<title>AppRoutingModule</title>
<polygon fill="#8dd3c7" stroke="black" points="520.28,-84.8 517.28,-88.8 496.28,-88.8 493.28,-84.8 391.72,-84.8 391.72,-48.8 520.28,-48.8 520.28,-84.8"/>
<text text-anchor="middle" x="456" y="-62.6" font-family="Times,serif" font-size="14.00">AppRoutingModule</text>
</g>
<!-- AppRoutingModule&#45;&gt;AppModule -->
<g id="edge4" class="edge">
<title>AppRoutingModule&#45;&gt;AppModule</title>
<path fill="none" stroke="black" d="M456,-84.91C456,-84.91 456,-103.79 456,-103.79"/>
<polygon fill="black" stroke="black" points="452.5,-103.79 456,-113.79 459.5,-103.79 452.5,-103.79"/>
</g>
<!-- SecurityModule -->
<g id="node6" class="node">
<title>SecurityModule</title>
<polygon fill="#8dd3c7" stroke="black" points="374.21,-84.8 371.21,-88.8 350.21,-88.8 347.21,-84.8 267.79,-84.8 267.79,-48.8 374.21,-48.8 374.21,-84.8"/>
<text text-anchor="middle" x="321" y="-62.6" font-family="Times,serif" font-size="14.00">SecurityModule</text>
</g>
<!-- SecurityModule&#45;&gt;AppModule -->
<g id="edge5" class="edge">
<title>SecurityModule&#45;&gt;AppModule</title>
<path fill="none" stroke="black" d="M321,-84.83C321,-101.2 321,-122.8 321,-122.8 321,-122.8 404.03,-122.8 404.03,-122.8"/>
<polygon fill="black" stroke="black" points="404.03,-126.3 414.03,-122.8 404.03,-119.3 404.03,-126.3"/>
</g>
<!-- SharedModule -->
<g id="node7" class="node">
<title>SharedModule</title>
<polygon fill="#8dd3c7" stroke="black" points="250.43,-84.8 247.43,-88.8 226.43,-88.8 223.43,-84.8 151.57,-84.8 151.57,-48.8 250.43,-48.8 250.43,-84.8"/>
<text text-anchor="middle" x="201" y="-62.6" font-family="Times,serif" font-size="14.00">SharedModule</text>
</g>
<!-- SharedModule&#45;&gt;AppModule -->
<g id="edge6" class="edge">
<title>SharedModule&#45;&gt;AppModule</title>
<path fill="none" stroke="black" d="M201,-84.91C201,-104.14 201,-131.8 201,-131.8 201,-131.8 404.18,-131.8 404.18,-131.8"/>
<polygon fill="black" stroke="black" points="404.18,-135.3 414.18,-131.8 404.18,-128.3 404.18,-135.3"/>
</g>
<!-- VacatureModule -->
<g id="node8" class="node">
<title>VacatureModule</title>
<polygon fill="#8dd3c7" stroke="black" points="134.07,-84.8 131.07,-88.8 110.07,-88.8 107.07,-84.8 23.93,-84.8 23.93,-48.8 134.07,-48.8 134.07,-84.8"/>
<text text-anchor="middle" x="79" y="-62.6" font-family="Times,serif" font-size="14.00">VacatureModule</text>
</g>
<!-- VacatureModule&#45;&gt;AppModule -->
<g id="edge7" class="edge">
<title>VacatureModule&#45;&gt;AppModule</title>
<path fill="none" stroke="black" d="M79,-85.09C79,-107.01 79,-140.8 79,-140.8 79,-140.8 404.21,-140.8 404.21,-140.8"/>
<polygon fill="black" stroke="black" points="404.21,-144.3 414.21,-140.8 404.21,-137.3 404.21,-144.3"/>
</g>
</g>
</svg>
